# xmcd
#
# Track frame offsets: 
#        150
#        26370
#        65798
#        89577
#        134735
#        164374
#        190577
#        221732
#        246405
#        277669
#
# Disc length: 4073 seconds
#
# Revision: 0
# Processed by: cddbd v1.5.2PL0 Copyright (c) Steve Scherf et al.
# Submitted via: ExactAudioCopyFreeDBPlugin 1.0
#
DISCID=940fe70a
DTITLE=Alex Olivari - ridin' on live
DYEAR=2002
DGENRE=Blues
TTITLE0=Trying to play the blues
TTITLE1=Dirty Dishes
TTITLE2=Ticket to ride
TTITLE3=Kill the critics
TTITLE4=Ridin on
TTITLE5=Good man feeling bad
TTITLE6=Drinkin
TTITLE7=Call me
TTITLE8=Desperate Lovers
TTITLE9=Shut up!
EXTD=
EXTT0=
EXTT1=
EXTT2=
EXTT3=
EXTT4=
EXTT5=
EXTT6=
EXTT7=
EXTT8=
EXTT9=
PLAYORDER=
